<?xml version="1.0" encoding="utf-8"?>
<!-- Generator: Adobe Illustrator 16.0.0, SVG Export Plug-In . SVG Version: 6.00 Build 0)  -->
<!DOCTYPE svg PUBLIC "-//W3C//DTD SVG 1.1//EN" "http://www.w3.org/Graphics/SVG/1.1/DTD/svg11.dtd">
<svg version="1.1" id="Layer_1" xmlns="http://www.w3.org/2000/svg" xmlns:xlink="http://www.w3.org/1999/xlink" x="0px" y="0px"
	 width="47px" height="59.998px" viewBox="0 0 47 59.998" enable-background="new 0 0 47 59.998" xml:space="preserve">
<g>
	<path fill="#F7ED3D" d="M44.085,0H2.915C1.309,0,0,1.308,0,2.915v54.168c0,1.606,1.309,2.915,2.915,2.915h41.17
		c1.606,0,2.915-1.309,2.915-2.915V2.915C47,1.308,45.691,0,44.085,0L44.085,0z M44.998,57.083c0,0.503-0.41,0.913-0.913,0.913
		H2.915c-0.502,0-0.913-0.41-0.913-0.913V2.915c0-0.503,0.41-0.912,0.913-0.912h41.17c0.503,0,0.913,0.409,0.913,0.912V57.083z
		 M44.998,57.083"/>
	<path fill="#F7ED3D" d="M5,54.998h11V43.997H5V54.998z M7.002,45.999h6.996v6.997H7.002V45.999z M7.002,45.999"/>
	<path fill="#F7ED3D" d="M17.997,54.998h11.001V43.997H17.997V54.998z M19.999,45.999h7.002v6.997h-7.002V45.999z M19.999,45.999"/>
	<path fill="#F7ED3D" d="M31,54.998h11V31H31V54.998z M32.997,32.997h7.001v19.999h-7.001V32.997z M32.997,32.997"/>
	<path fill="#F7ED3D" d="M5,42h11V31H5V42z M7.002,32.997h6.996v7.002H7.002V32.997z M7.002,32.997"/>
	<path fill="#F7ED3D" d="M17.997,42h11.001V31H17.997V42z M19.999,32.997h7.002v7.002h-7.002V32.997z M19.999,32.997"/>
	<path fill="#F7ED3D" d="M5,28.998h11V17.997H5V28.998z M7.002,19.999h6.996v7.002H7.002V19.999z M7.002,19.999"/>
	<path fill="#F7ED3D" d="M17.997,28.998h11.001V17.997H17.997V28.998z M19.999,19.999h7.002v7.002h-7.002V19.999z M19.999,19.999"/>
	<path fill="#F7ED3D" d="M31,28.998h11V17.997H31V28.998z M32.997,19.999h7.001v7.002h-7.001V19.999z M32.997,19.999"/>
	<path fill="#F7ED3D" d="M5,14.999h37V5H5V14.999z M7.002,7.002h32.996v5.995H7.002V7.002z M7.002,7.002"/>
</g>
</svg>
