<?xml version="1.0" encoding="utf-8"?>
<!-- Generator: Adobe Illustrator 16.0.0, SVG Export Plug-In . SVG Version: 6.00 Build 0)  -->
<!DOCTYPE svg PUBLIC "-//W3C//DTD SVG 1.1//EN" "http://www.w3.org/Graphics/SVG/1.1/DTD/svg11.dtd">
<svg version="1.1" id="Layer_1" xmlns="http://www.w3.org/2000/svg" xmlns:xlink="http://www.w3.org/1999/xlink" x="0px" y="0px"
	 width="64px" height="68.57px" viewBox="0 0 64 68.57" enable-background="new 0 0 64 68.57" xml:space="preserve">
<g>
	<path fill="#F7ED3D" d="M62.856,4.57h-8.003V1.144C54.854,0.513,54.346,0,53.716,0h-8.002c-0.631,0-1.145,0.513-1.145,1.144V4.57
		H19.431V1.144C19.431,0.513,18.917,0,18.287,0h-8.002C9.654,0,9.14,0.513,9.14,1.144V4.57H1.144C0.513,4.57,0,5.084,0,5.714v61.712
		c0,0.63,0.513,1.144,1.144,1.144h61.712c0.63,0,1.144-0.514,1.144-1.144V5.714C64,5.084,63.486,4.57,62.856,4.57L62.856,4.57z
		 M46.857,2.289h5.714V9.14h-5.714V2.289z M11.428,2.289h5.714V9.14h-5.714V2.289z M2.289,6.858H9.14v3.426
		c0,0.631,0.514,1.144,1.145,1.144h8.002c0.63,0,1.145-0.513,1.145-1.144V6.858h25.138v3.426c0,0.631,0.514,1.144,1.145,1.144h8.002
		c0.63,0,1.138-0.513,1.138-1.144V6.858h6.858v10.284H2.289V6.858z M2.289,66.282V19.431h59.423v46.851H2.289z M2.289,66.282"/>
	<path fill="#F7ED3D" d="M41.144,26.282H10.284V59.43h43.432V26.282H41.144z M33.142,28.571h8.002v8.002h-8.002V28.571z
		 M41.144,46.857h-8.002v-8.002h8.002V46.857z M22.857,38.855h8.002v8.002h-8.002V38.855z M22.857,28.571h8.002v8.002h-8.002V28.571
		z M12.572,28.571h7.996v8.002h-7.996V28.571z M12.572,38.855h7.996v8.002h-7.996V38.855z M20.568,57.142h-7.996V49.14h7.996V57.142
		z M30.859,57.142h-8.002V49.14h8.002V57.142z M41.144,57.142h-8.002V49.14h8.002V57.142z M51.428,57.142h-8.002V49.14h8.002V57.142
		z M51.428,46.857h-8.002v-8.002h8.002V46.857z M51.428,28.571v8.002h-8.002v-8.002H51.428z M51.428,28.571"/>
</g>
</svg>
