<?xml version="1.0" encoding="utf-8"?>
<!-- Generator: Adobe Illustrator 16.0.0, SVG Export Plug-In . SVG Version: 6.00 Build 0)  -->
<!DOCTYPE svg PUBLIC "-//W3C//DTD SVG 1.1//EN" "http://www.w3.org/Graphics/SVG/1.1/DTD/svg11.dtd">
<svg version="1.1" id="Layer_1" xmlns="http://www.w3.org/2000/svg" xmlns:xlink="http://www.w3.org/1999/xlink" x="0px" y="0px"
	 width="89px" height="89px" viewBox="0 0 89 89" enable-background="new 0 0 89 89" xml:space="preserve">
<g>
	<path d="M24.403,55.524v3.33h21.532V44.499H32.276L24.403,55.524z M43.064,47.371v8.612H27.603l6.153-8.612H43.064z M43.064,47.371
		"/>
	<path d="M47.371,44.499v14.355h21.532v-3.33l-7.874-11.025H47.371z M50.241,55.983v-8.612h9.31l6.153,8.612H50.241z M50.241,55.983
		"/>
	<path d="M83.606,56.027l-5.737-1.437c-1.445-0.365-2.281-0.931-3.491-2.313l-7.214-10.099c-1.851-2.367-3.972-3.42-6.874-3.42
		H33.017c-2.904,0-5.025,1.054-6.911,3.472l-7.093,9.94c-1.289,1.485-2.272,2.159-3.459,2.397l-8.669,1.445
		C2.767,56.871,0,60.319,0,64.597v10.048c0,3.113,2.63,5.742,5.742,5.742h4.422c0.7,4.861,4.882,8.613,9.932,8.613H89v-2.872H75.921
		c1.542-1.509,2.593-3.507,2.915-5.741h5.857c3.559,0,4.307-2.342,4.307-4.308V63.16C89,59.603,86.096,56.447,83.606,56.027
		L83.606,56.027z M20.096,86.128c-3.957,0-7.177-3.219-7.177-7.177s3.221-7.177,7.177-7.177c3.958,0,7.179,3.219,7.179,7.177
		S24.054,86.128,20.096,86.128L20.096,86.128z M27.114,86.128c1.542-1.509,2.594-3.507,2.916-5.741H58.97
		c0.321,2.234,1.372,4.232,2.914,5.741H27.114z M68.902,86.128c-3.957,0-7.177-3.219-7.177-7.177s3.22-7.177,7.177-7.177
		c3.958,0,7.179,3.219,7.179,7.177S72.86,86.128,68.902,86.128L68.902,86.128z M86.128,76.081c0,1.231-0.2,1.435-1.435,1.435h-5.857
		c-0.7-4.86-4.882-8.612-9.934-8.612c-5.05,0-9.232,3.752-9.933,8.612H30.03c-0.701-4.86-4.883-8.612-9.934-8.612
		c-5.05,0-9.232,3.752-9.932,8.612H5.742c-1.529,0-2.87-1.342-2.87-2.871v-7.178h2.87v2.872h2.872v-2.872
		c0-1.852-1.02-2.87-2.872-2.87h-2.87c0-3.552,2.376-5.311,4.542-5.763l8.659-1.443c1.873-0.377,3.4-1.373,5.192-3.444l7.14-9.999
		c1.32-1.69,2.571-2.318,4.611-2.318H60.29c2.039,0,3.288,0.628,4.573,2.27l7.263,10.156c1.407,1.619,2.74,2.739,5.041,3.319
		l5.849,1.459c1.226,0.212,3.112,2.162,3.112,4.329V76.081z M86.128,76.081"/>
	<rect x="41.629" y="61.726" width="4.307" height="2.871"/>
	<path d="M20.096,74.645c-2.374,0-4.306,1.933-4.306,4.307s1.932,4.307,4.306,4.307s4.307-1.933,4.307-4.307
		S22.47,74.645,20.096,74.645L20.096,74.645z M20.096,80.387c-0.791,0-1.435-0.643-1.435-1.436c0-0.792,0.645-1.436,1.435-1.436
		c0.792,0,1.437,0.644,1.437,1.436C21.533,79.744,20.888,80.387,20.096,80.387L20.096,80.387z M20.096,80.387"/>
	<path d="M68.902,74.645c-2.374,0-4.306,1.933-4.306,4.307s1.932,4.307,4.306,4.307s4.307-1.933,4.307-4.307
		S71.278,74.645,68.902,74.645L68.902,74.645z M68.902,80.387c-0.79,0-1.436-0.643-1.436-1.436c0-0.792,0.646-1.436,1.436-1.436
		c0.792,0,1.437,0.644,1.437,1.436C70.339,79.744,69.694,80.387,68.902,80.387L68.902,80.387z M68.902,80.387"/>
	<rect x="7.177" y="86.128" width="2.872" height="2.872"/>
	<rect x="1.436" y="86.128" width="2.872" height="2.872"/>
	<rect x="18.661" y="14.354" width="2.872" height="21.533"/>
	<rect x="8.612" y="14.354" width="2.872" height="27.275"/>
	<rect x="68.902" y="14.354" width="2.871" height="27.275"/>
	<rect x="78.951" y="14.354" width="2.871" height="27.275"/>
	<rect x="28.71" y="14.354" width="2.87" height="21.533"/>
	<rect x="38.757" y="20.096" width="2.872" height="15.791"/>
	<rect x="48.806" y="14.354" width="2.872" height="15.791"/>
	<rect x="58.854" y="14.354" width="2.87" height="21.533"/>
	<path d="M82.54,4.307H64.597V0h-2.871v4.307H27.273V0h-2.87v4.307H6.46C2.898,4.307,0,7.205,0,10.766v2.153h89v-2.153
		C89,7.205,86.102,4.307,82.54,4.307L82.54,4.307z M3.17,10.049c0.555-1.437,1.821-2.872,3.29-2.872h76.08
		c1.469,0,2.734,1.435,3.289,2.872H3.17z M3.17,10.049"/>
	<rect x="18.661" y="44.499" width="2.872" height="2.872"/>
	<rect x="78.951" y="44.499" width="2.871" height="2.872"/>
	<rect x="8.612" y="44.499" width="2.872" height="2.872"/>
	<rect x="8.612" y="50.241" width="2.872" height="2.872"/>
	<rect x="78.951" y="50.241" width="2.871" height="2.872"/>
	<rect x="48.806" y="33.017" width="2.872" height="2.87"/>
	<rect x="18.661" y="38.757" width="2.872" height="2.872"/>
	<rect y="51.678" width="2.872" height="2.87"/>
	<rect x="86.128" y="51.678" width="2.872" height="2.87"/>
	<rect x="38.757" y="14.354" width="2.872" height="2.872"/>
</g>
</svg>
