<?xml version="1.0" encoding="utf-8"?>
<!-- Generator: Adobe Illustrator 16.0.0, SVG Export Plug-In . SVG Version: 6.00 Build 0)  -->
<!DOCTYPE svg PUBLIC "-//W3C//DTD SVG 1.1//EN" "http://www.w3.org/Graphics/SVG/1.1/DTD/svg11.dtd">
<svg version="1.1" id="Layer_1" xmlns="http://www.w3.org/2000/svg" xmlns:xlink="http://www.w3.org/1999/xlink" x="0px" y="0px"
	 width="105.564px" height="67px" viewBox="0 0 105.564 67" enable-background="new 0 0 105.564 67" xml:space="preserve">
<g>
	<circle fill="none" stroke="#000000" stroke-width="2" stroke-miterlimit="10" cx="33.213" cy="29.057" r="1.813"/>
	<path fill="none" stroke="#000000" stroke-width="2" stroke-miterlimit="10" d="M46.291,47.551
		c-2.154,3.417-3.055,9.396-2.093,14.229c0.302,1.515,0.468,2.35,0.824,2.64c0.36,0.292,1.277,0.292,2.796,0.292h0.001
		c2.713,0,4.351,0,4.896-0.59c0.536-0.58,0.444-2.107,0.221-4.984C52.537,54.011,50.302,50.115,46.291,47.551z"/>
	<path fill="none" stroke="#000000" stroke-width="2" stroke-miterlimit="10" d="M14.824,19.669l0.014,0.143
		c0.529,0.447,1.33,1.077,2.109,1.689c0.666,0.521,1.303,1.022,1.796,1.428c2.656-2.918,5.561-4.34,8.859-4.34
		c0.027,0,0.053,0.001,0.08,0.001c3.515,0.024,6.491,1.494,8.855,4.371c0.494-0.424,1.143-0.976,1.802-1.537
		c0.861-0.733,1.737-1.479,2.314-1.976c0.105-0.622,0.188-1.225,0.194-1.815c0.006-0.499,0.024-1.004,0.041-1.51
		c0.06-1.713,0.123-3.483-0.311-5.033c-1.556-5.562-6.543-8.882-13.341-8.882c-0.32,0-0.643,0.007-0.969,0.022
		c-3.795,0.176-7.285,2.036-9.572,5.102c-2.259,3.028-3.042,6.839-2.148,10.453C14.704,18.413,14.765,19.052,14.824,19.669z
		 M23.827,6.77c2.489-0.097,5.072-0.098,7.671-0.001c2.567,0.096,4.015,1.807,3.972,4.695c-0.04,2.698-1.503,4.314-4.016,4.433
		c-0.439,0.021-0.908,0.031-1.475,0.031c-0.396,0-0.793-0.005-1.19-0.01c-0.765-0.009-1.529-0.009-2.294,0
		c-0.378,0.004-0.755,0.009-1.132,0.009c0,0,0,0-0.001,0c-0.532,0-0.974-0.009-1.388-0.028c-2.532-0.114-4.005-1.713-4.043-4.386
		C19.888,8.597,21.309,6.868,23.827,6.77z"/>
	<circle fill="none" stroke="#000000" stroke-width="2" stroke-miterlimit="10" cx="22.951" cy="29.057" r="1.813"/>
	<path fill="none" stroke="#000000" stroke-width="2" stroke-miterlimit="10" d="M26.313,43.721
		c5.203,0.46,9.433-1.879,12.588-6.961c0.512-0.825,0.908-1.703,1.327-2.633c0.673-1.49,1.368-3.031,2.582-4.358
		c0.747-0.816,0.888-2.632,0.965-3.607c0.177-2.272-0.509-3.195-3.059-4.113l-0.465-0.167l0.072-0.489
		c0.004-0.026,0.01-0.053,0.014-0.08c-0.386,0.329-0.8,0.683-1.212,1.033c-0.901,0.768-1.782,1.517-2.275,1.942l-0.488,0.421
		l-0.389-0.515c-2.216-2.934-4.93-4.372-8.296-4.396c-0.024,0-0.05,0-0.074,0c-3.131,0-5.782,1.389-8.337,4.368l-0.398,0.463
		l-0.459-0.402c-0.484-0.424-1.359-1.11-2.206-1.775c-0.493-0.387-0.992-0.779-1.433-1.134c-0.181,0.513-0.596,0.97-1.46,1.299
		c-0.554,0.211-1.228,1.037-1.472,1.804c-0.78,2.453-0.148,4.728,1.989,7.158c0.478,0.544,1.108,1.394,1.397,2.357
		C16.72,38.921,21.695,43.311,26.313,43.721z M33.213,26.035c1.667,0,3.022,1.355,3.022,3.021s-1.355,3.021-3.022,3.021
		c-1.666,0-3.021-1.355-3.021-3.021S31.548,26.035,33.213,26.035z M27.892,39.041c1.723-0.02,3.353-0.999,4.845-2.911l0.953,0.743
		c-1.732,2.22-3.681,3.355-5.792,3.377c-0.02,0-0.039,0-0.059,0c-3.583,0-6.247-3.229-6.359-3.368l0.938-0.763
		C22.442,36.148,24.875,39.092,27.892,39.041z M22.951,26.035c1.666,0,3.021,1.355,3.021,3.021s-1.355,3.021-3.021,3.021
		s-3.021-1.355-3.021-3.021S21.285,26.035,22.951,26.035z"/>
	<path fill="none" stroke="#000000" stroke-width="2" stroke-miterlimit="10" d="M35.591,45.793
		c-2.424,1.991-5.149,3.043-7.88,3.043c-2.707,0-5.417-1.034-7.839-2.991c-0.96-0.775-1.873-1.137-2.872-1.137
		c-0.753,0-1.528,0.2-2.414,0.519c2.162,4.626,3.093,14.408,2.772,19.564h20.707c-0.351-5.209,0.544-14.873,2.728-19.562
		c-0.92-0.308-1.72-0.522-2.484-0.522C37.357,44.707,36.494,45.053,35.591,45.793z"/>
	<path fill="none" stroke="#000000" stroke-width="2" stroke-miterlimit="10" d="M3.43,54.618c-0.36,1.052-0.621,2.174-0.873,3.259
		c-0.113,0.485-0.225,0.971-0.347,1.452v2.985c0.203,0.396,0.259,0.844,0.308,1.247c0.112,0.903,0.18,1.164,0.983,1.164l0.087-0.002
		C4.127,64.708,4.716,64.7,5.44,64.7c0.385,0,0.77,0.002,1.155,0.004c0.383,0.002,0.767,0.004,1.149,0.004
		c0.832,0,1.47-0.01,2.071-0.03c0.191-0.007,0.567-0.217,0.64-0.337c1.804-5.752,1.392-11.281-1.274-16.854
		C6.318,49.347,4.434,51.685,3.43,54.618z"/>
	<path fill="none" stroke="#000000" stroke-width="2" stroke-miterlimit="10" d="M102.078,32.704
		c-1.104-3.435-1.882-3.995-5.544-3.995H68.894l-0.051-1.498l25.355-0.884c-0.424-0.904-0.595-1.551-0.279-2.072
		c0.403-0.665,1.352-0.716,2.863-0.72h0.101c0.346,0,0.691,0.004,1.037,0.009c0.342,0.004,0.684,0.008,1.024,0.008
		c0.476,0,0.866-0.008,1.232-0.025c0.871-0.042,1.546-0.333,1.952-0.843c0.407-0.512,0.541-1.235,0.386-2.094
		c-0.368-2.042-2.324-3.191-5.127-2.979c-2.039,0.154-3.233,1.381-3.363,3.458c-0.028,0.453-0.114,0.897-0.223,1.46
		c-0.057,0.299-0.123,0.64-0.192,1.046l-0.251,1.456l-0.842-1.214c-3.873-5.587-6.354-10.192-8.047-14.936
		c-0.897-2.516-2.449-3.744-4.744-3.758c-4.677-0.026-9.618-0.038-16.024-0.038c-3.069,0-6.144,0.003-9.229,0.005
		c-2.816,0.003-5.641,0.005-8.476,0.006c0.48,1.278,0.803,2.019,1.226,2.339c0.484,0.366,1.351,0.366,3.076,0.366
		c2.442,0,4.885,0.002,7.327,0.005c2.441,0.002,4.884,0.005,7.325,0.005c4.758,0,8.608-0.01,12.118-0.03h0.052
		c2.612,0,4.407,1.193,5.49,3.648c1.004,2.273,2.076,4.519,3.191,6.667c0.609,1.177,1.306,2.346,2.042,3.584
		c0.355,0.596,0.726,1.217,1.109,1.876l0.527,0.907H50.97c0.318,3.963-0.628,7.453-2.887,10.651
		c-0.615,0.872-1.146,1.838-1.707,2.859c-0.169,0.31-0.343,0.625-0.522,0.947l2.596,1.002c1.298-3.669,2.689-4.535,6.823-4.536
		l6.911-0.003c2.394,0,4.788,0.003,7.183,0.013c0.934,0.005,1.675,0.086,2.334,0.258c2.171,0.565,3.667,2.368,3.812,4.592
		c0.146,2.249-1.139,4.277-3.198,5.046c-0.797,0.298-1.735,0.44-2.955,0.449c-2.162,0.017-4.469,0.023-7.479,0.023l-6.658-0.004
		c0.213,0.364,0.424,0.726,0.634,1.083c0.924,1.573,1.795,3.058,2.539,4.638c0.411,0.874,0.732,1.088,1.638,1.088
		c3.004-0.023,6.168-0.033,10.295-0.033c1.772,0,3.546,0.002,5.319,0.004c1.72,0.001,3.441,0.003,5.163,0.003h2.479l0.12,0.449
		c0.042,0.157,0.072,0.259,0.091,0.328c0.039,0.132,0.063,0.219,0.064,0.339c0.006,0.783,0.01,1.566,0.013,2.35
		c0.008,1.537,0.016,3.126,0.041,4.688c0.042,2.652,1.386,4.002,3.992,4.014c0.564,0.003,1.129,0.003,1.693,0.003l2.934-0.002
		c3.861,0,4.863-1.016,4.87-4.946c0.003-1.564,0.002-3.13,0.001-4.445v-1.806l0.335-0.165c0.563-0.28,1.123-0.493,1.617-0.682
		c0.757-0.285,1.471-0.558,1.625-0.874C103.689,45.599,104.159,39.176,102.078,32.704z M85.027,44.54L85.027,44.54l-0.094-0.001
		c-1.1-0.026-2.144-0.502-2.938-1.34c-0.838-0.884-1.298-2.086-1.261-3.298c0.071-2.371,1.984-4.31,4.266-4.32
		c1.157,0,2.22,0.439,3.013,1.238c0.838,0.846,1.294,2.002,1.284,3.256C89.277,42.538,87.361,44.54,85.027,44.54z M95.621,44.182
		L95.621,44.182l-0.077-0.001c-2.129-0.045-3.916-1.957-3.903-4.175c0.012-2.222,1.825-4.116,3.958-4.137c0.001,0,0.001,0,0.001,0
		c1.051,0,2.071,0.453,2.832,1.244c0.807,0.835,1.244,1.953,1.203,3.065C99.555,42.349,97.717,44.182,95.621,44.182z"/>
	<path fill="none" stroke="#000000" stroke-width="2" stroke-miterlimit="10" d="M85.022,36.789
		c-1.653,0.009-3.027,1.421-3.081,3.148c-0.025,0.893,0.313,1.778,0.931,2.43c0.572,0.604,1.313,0.945,2.089,0.963l0.066,0.001
		c1.645,0.001,3.047-1.496,3.062-3.266c0.008-0.93-0.323-1.78-0.934-2.395C86.592,37.103,85.834,36.789,85.022,36.789z"/>
	<path fill="none" stroke="#000000" stroke-width="2" stroke-miterlimit="10" d="M95.634,37.077
		c-1.485,0.015-2.777,1.386-2.786,2.936c-0.009,1.572,1.239,2.929,2.723,2.96h0.051c1.438,0,2.75-1.326,2.806-2.839
		c0.03-0.786-0.286-1.582-0.865-2.183C97.026,37.396,96.324,37.077,95.634,37.077z"/>
	<path fill="none" stroke="#000000" stroke-width="2" stroke-miterlimit="10" d="M24.028,14.691c0.396,0.018,0.82,0.026,1.333,0.026
		c0,0,0,0,0.001,0c0.372,0,0.745-0.005,1.118-0.009c0.377-0.005,0.755-0.009,1.133-0.009c0.396,0,0.793,0.005,1.19,0.01
		c0.392,0.005,0.784,0.01,1.176,0.01c0.547,0,0.997-0.01,1.418-0.03c1.871-0.088,2.834-1.18,2.865-3.243
		c0.033-2.232-0.912-3.399-2.809-3.47c-2.568-0.096-5.122-0.095-7.579,0.001c-1.848,0.071-2.769,1.255-2.736,3.518
		C21.168,13.53,22.14,14.606,24.028,14.691z"/>
	<path stroke="#000000" stroke-width="2" stroke-miterlimit="10" d="M9.672,45.768l-0.557,0.335
		c-3.432,2.066-5.665,4.724-6.829,8.123c-0.38,1.111-0.648,2.264-0.907,3.378c-0.116,0.502-0.233,1.003-0.359,1.501l-0.019,3.552
		l0.101,0.152c0.13,0.197,0.173,0.54,0.217,0.9c0.103,0.832,0.276,2.225,2.182,2.225l0.123-0.002
		c0.527-0.016,1.104-0.022,1.816-0.022c0.383,0,0.766,0.002,1.149,0.004c0.385,0.002,0.77,0.004,1.155,0.004
		c0.847,0,1.499-0.01,2.115-0.031c0.567-0.021,1.525-0.48,1.737-1.152c1.98-6.302,1.447-12.316-1.629-18.387L9.672,45.768z
		 M10.455,64.341c-0.073,0.12-0.449,0.33-0.64,0.337c-0.601,0.021-1.24,0.03-2.071,0.03c-0.383,0-0.766-0.002-1.149-0.004
		C6.21,64.702,5.825,64.7,5.44,64.7c-0.724,0-1.313,0.008-1.852,0.023l-0.087,0.002c-0.803,0-0.871-0.261-0.983-1.164
		c-0.049-0.403-0.105-0.851-0.308-1.247v-2.985c0.122-0.481,0.234-0.967,0.347-1.452c0.252-1.085,0.513-2.207,0.873-3.259
		c1.004-2.934,2.889-5.271,5.751-7.132C11.847,53.06,12.259,58.589,10.455,64.341z"/>
	<path stroke="#000000" stroke-width="2" stroke-miterlimit="10" d="M103.229,32.335c-1.264-3.932-2.515-4.835-6.694-4.835h-1.297
		l0.898-0.031l-0.44-0.848c-0.204-0.396-0.732-1.414-0.732-1.733c0.276-0.141,1.393-0.144,1.822-0.145h0.098
		c0.341,0,0.682,0.004,1.022,0.009c0.347,0.004,0.693,0.008,1.039,0.008c0.495,0,0.905-0.009,1.29-0.026
		c1.229-0.06,2.211-0.507,2.84-1.298c0.631-0.791,0.848-1.85,0.63-3.06c-0.444-2.466-2.615-3.999-5.664-3.999
		c-0.242,0-0.492,0.01-0.743,0.029c-2.637,0.198-4.313,1.913-4.479,4.588c-0.018,0.283-0.064,0.574-0.131,0.932
		c-3.344-4.962-5.547-9.154-7.079-13.45c-1.06-2.967-3.091-4.544-5.875-4.56c-4.68-0.027-9.623-0.039-16.032-0.039
		c-3.069,0-6.145,0.003-9.229,0.006c-3.104,0.002-6.218,0.005-9.344,0.005h-0.867l0.301,0.813c1.529,4.147,1.743,4.31,5.736,4.31
		c2.442,0,4.884,0.002,7.325,0.004c2.442,0.003,4.885,0.005,7.327,0.005c4.76,0,8.613-0.009,12.125-0.03h0.045
		c2.14,0,3.491,0.903,4.385,2.928c1.013,2.298,2.098,4.564,3.224,6.736c0.627,1.208,1.332,2.392,2.077,3.645
		c0.187,0.313,0.376,0.631,0.569,0.959H49.625l0.078,0.673c0.451,3.933-0.401,7.363-2.607,10.488
		c-0.655,0.928-1.201,1.923-1.779,2.976c-0.271,0.496-0.553,1.007-0.858,1.537l-0.354,0.611l5.091,1.965l0.197-0.604
		c1.209-3.702,2.033-4.306,5.88-4.307l6.911-0.002c2.393,0,4.785,0.002,7.177,0.013c0.831,0.004,1.477,0.073,2.035,0.219
		c1.658,0.432,2.801,1.805,2.91,3.5c0.11,1.714-0.859,3.256-2.415,3.836c-0.65,0.243-1.482,0.365-2.541,0.373
		c-2.159,0.016-4.463,0.023-7.47,0.023l-8.739-0.006l0.512,0.902c0.388,0.684,0.778,1.349,1.161,2.003
		c0.909,1.548,1.767,3.011,2.487,4.54c0.611,1.299,1.352,1.782,2.731,1.781h0.047c2.964-0.022,6.124-0.032,10.248-0.032
		c1.771,0,3.545,0.002,5.317,0.003c1.722,0.002,3.443,0.004,5.165,0.004h1.547c0.005,0.754,0.009,1.509,0.012,2.263
		c0.008,1.541,0.015,3.133,0.04,4.702c0.054,3.291,1.947,5.188,5.196,5.202c0.565,0.002,1.132,0.003,1.698,0.003l2.934-0.002
		c4.536,0,6.07-1.553,6.079-6.152c0.003-1.566,0.002-3.132,0.001-4.449l-0.001-1.047c0.396-0.179,0.79-0.328,1.173-0.474
		c1.03-0.391,1.92-0.728,2.283-1.479C104.918,45.837,105.408,39.112,103.229,32.335z M100.685,51.794
		c-0.154,0.316-0.868,0.589-1.625,0.874c-0.494,0.188-1.055,0.401-1.617,0.682l-0.335,0.165v1.806
		c0.001,1.315,0.002,2.881-0.001,4.445c-0.007,3.931-1.009,4.946-4.87,4.946l-2.934,0.002c-0.564,0-1.129,0-1.693-0.003
		c-2.606-0.012-3.95-1.361-3.992-4.014c-0.025-1.562-0.033-3.15-0.041-4.688c-0.003-0.783-0.007-1.566-0.013-2.35
		c-0.001-0.12-0.025-0.207-0.064-0.339c-0.019-0.069-0.049-0.171-0.091-0.328l-0.12-0.449H80.81c-1.722,0-3.443-0.002-5.163-0.003
		c-1.773-0.002-3.547-0.004-5.319-0.004c-4.127,0-7.291,0.01-10.295,0.033c-0.905,0-1.227-0.214-1.638-1.088
		c-0.744-1.58-1.615-3.064-2.539-4.638c-0.21-0.357-0.421-0.719-0.634-1.083l6.658,0.004c3.01,0,5.316-0.007,7.479-0.023
		c1.22-0.009,2.158-0.151,2.955-0.449c2.06-0.769,3.345-2.797,3.198-5.046c-0.145-2.224-1.641-4.026-3.812-4.592
		c-0.659-0.172-1.4-0.253-2.334-0.258c-2.395-0.01-4.789-0.013-7.183-0.013l-6.911,0.003c-4.134,0.001-5.525,0.867-6.823,4.536
		l-2.596-1.002c0.18-0.322,0.354-0.638,0.522-0.947c0.562-1.021,1.092-1.987,1.707-2.859c2.259-3.198,3.205-6.688,2.887-10.651
		h38.512l-0.527-0.907c-0.384-0.659-0.754-1.28-1.109-1.876c-0.736-1.238-1.433-2.407-2.042-3.584
		c-1.115-2.148-2.188-4.394-3.191-6.667c-1.083-2.455-2.878-3.648-5.49-3.648h-0.052c-3.51,0.021-7.36,0.03-12.118,0.03
		c-2.441,0-4.884-0.003-7.325-0.005c-2.442-0.003-4.885-0.005-7.327-0.005c-1.726,0-2.592,0-3.076-0.366
		c-0.423-0.32-0.745-1.061-1.226-2.339c2.835-0.001,5.659-0.003,8.476-0.006c3.085-0.002,6.159-0.005,9.229-0.005
		c6.406,0,11.348,0.012,16.024,0.038c2.295,0.014,3.847,1.242,4.744,3.758c1.692,4.743,4.174,9.349,8.047,14.936l0.842,1.214
		l0.251-1.456c0.069-0.406,0.136-0.747,0.192-1.046c0.108-0.563,0.194-1.007,0.223-1.46c0.13-2.077,1.324-3.304,3.363-3.458
		c2.803-0.213,4.759,0.937,5.127,2.979c0.155,0.858,0.021,1.582-0.386,2.094c-0.406,0.51-1.081,0.801-1.952,0.843
		c-0.366,0.018-0.757,0.025-1.232,0.025c-0.341,0-0.683-0.004-1.024-0.008c-0.346-0.005-0.691-0.009-1.037-0.009h-0.101
		c-1.512,0.004-2.46,0.055-2.863,0.72c-0.315,0.521-0.145,1.168,0.279,2.072l-25.355,0.884l0.051,1.498h27.641
		c3.662,0,4.439,0.561,5.544,3.995C104.159,39.176,103.689,45.599,100.685,51.794z"/>
	<path stroke="#000000" stroke-width="2" stroke-miterlimit="10" d="M85.001,35.581c-2.281,0.011-4.194,1.949-4.266,4.32
		c-0.037,1.212,0.423,2.414,1.261,3.298c0.794,0.838,1.838,1.313,2.938,1.34l0.094,0.001l0,0c2.334,0,4.25-2.002,4.271-4.465
		c0.01-1.254-0.446-2.41-1.284-3.256C87.221,36.021,86.158,35.581,85.001,35.581z M85.027,43.331l-0.066-0.001
		c-0.775-0.018-1.517-0.359-2.089-0.963c-0.617-0.651-0.956-1.537-0.931-2.43c0.054-1.728,1.428-3.14,3.081-3.148
		c0.812,0,1.569,0.313,2.133,0.882c0.61,0.614,0.941,1.465,0.934,2.395C88.074,41.835,86.672,43.332,85.027,43.331z"/>
	<path stroke="#000000" stroke-width="2" stroke-miterlimit="10" d="M95.6,35.869C95.6,35.869,95.6,35.869,95.6,35.869
		c-2.134,0.021-3.947,1.915-3.959,4.137c-0.013,2.218,1.774,4.13,3.903,4.175l0.077,0.001l0,0c2.096,0,3.934-1.833,4.014-4.003
		c0.041-1.112-0.396-2.23-1.203-3.065C97.671,36.322,96.65,35.869,95.6,35.869z M95.621,42.973H95.57
		c-1.483-0.031-2.731-1.388-2.723-2.96c0.009-1.55,1.301-2.921,2.786-2.936c0.69,0,1.393,0.319,1.928,0.874
		c0.579,0.601,0.896,1.396,0.865,2.183C98.371,41.646,97.06,42.973,95.621,42.973z"/>
	<path stroke="#000000" stroke-width="2" stroke-miterlimit="10" d="M26.206,44.924c0.471,0.042,0.941,0.063,1.397,0.063
		c5.052,0,9.198-2.554,12.324-7.59c0.554-0.894,0.985-1.849,1.402-2.773c0.663-1.468,1.288-2.854,2.372-4.04
		c0.948-1.036,1.157-2.777,1.278-4.328c0.206-2.656-0.719-4.097-3.387-5.168c0.043-0.253,0.088-0.504,0.133-0.753
		c0.166-0.918,0.321-1.785,0.332-2.689c0.006-0.489,0.023-0.984,0.041-1.48c0.063-1.805,0.128-3.67-0.355-5.402
		C39.98,4.46,33.97,0.665,26.213,1.023c-4.159,0.192-7.98,2.229-10.485,5.585c-2.477,3.32-3.334,7.501-2.353,11.468
		c0.134,0.542,0.188,1.108,0.246,1.709l0.038,0.388c0.078,0.759-0.015,1.022-0.781,1.314c-1.019,0.387-1.891,1.611-2.194,2.565
		c-0.909,2.858-0.179,5.581,2.233,8.323c0.398,0.454,0.921,1.153,1.148,1.907C15.72,39.793,21.052,44.467,26.206,44.924z
		 M16.696,7.332c2.288-3.065,5.777-4.926,9.572-5.102c0.327-0.016,0.649-0.022,0.969-0.022c6.798,0,11.786,3.32,13.341,8.882
		c0.434,1.55,0.371,3.32,0.311,5.033c-0.017,0.506-0.035,1.011-0.041,1.51c-0.006,0.591-0.089,1.193-0.194,1.815
		c-0.577,0.497-1.454,1.242-2.314,1.976c-0.66,0.562-1.308,1.113-1.802,1.537c-2.364-2.877-5.34-4.347-8.855-4.371
		c-0.027,0-0.053-0.001-0.08-0.001c-3.298,0-6.203,1.422-8.859,4.34c-0.493-0.405-1.131-0.906-1.796-1.428
		c-0.78-0.612-1.581-1.242-2.109-1.689l-0.014-0.143c-0.059-0.617-0.121-1.256-0.276-1.884C13.654,14.171,14.437,10.36,16.696,7.332
		z M11.836,24.42c0.244-0.767,0.918-1.593,1.472-1.804c0.864-0.329,1.279-0.786,1.46-1.299c0.441,0.354,0.94,0.747,1.433,1.134
		c0.847,0.665,1.722,1.352,2.206,1.775l0.459,0.402l0.398-0.463c2.555-2.979,5.206-4.368,8.337-4.368c0.024,0,0.049,0,0.074,0
		c3.366,0.023,6.08,1.462,8.296,4.396l0.389,0.515l0.488-0.421c0.493-0.426,1.374-1.175,2.275-1.942
		c0.413-0.351,0.827-0.704,1.212-1.033c-0.004,0.027-0.01,0.054-0.014,0.08l-0.072,0.489l0.465,0.167
		c2.55,0.918,3.236,1.841,3.059,4.113c-0.077,0.976-0.218,2.791-0.965,3.607c-1.214,1.327-1.909,2.868-2.582,4.358
		c-0.419,0.93-0.815,1.808-1.327,2.633c-3.155,5.082-7.385,7.421-12.588,6.961c-4.618-0.41-9.593-4.8-11.089-9.785
		c-0.289-0.964-0.92-1.813-1.397-2.357C11.688,29.147,11.057,26.873,11.836,24.42z"/>
	<path stroke="#000000" stroke-width="2" stroke-miterlimit="10" d="M23.974,15.898c0.415,0.02,0.856,0.028,1.388,0.028
		c0,0,0,0,0.001,0c0.377,0,0.754-0.005,1.132-0.009c0.765-0.009,1.529-0.009,2.294,0c0.397,0.005,0.794,0.01,1.19,0.01
		c0.566,0,1.035-0.01,1.475-0.031c2.513-0.118,3.977-1.734,4.016-4.433c0.043-2.889-1.405-4.6-3.972-4.695
		c-2.599-0.097-5.182-0.096-7.671,0.001c-2.519,0.099-3.939,1.827-3.897,4.743C19.968,14.186,21.442,15.784,23.974,15.898z
		 M23.875,7.978c2.458-0.096,5.011-0.097,7.579-0.001c1.896,0.07,2.841,1.237,2.809,3.47c-0.03,2.063-0.994,3.155-2.865,3.243
		c-0.421,0.021-0.871,0.03-1.418,0.03c-0.392,0-0.784-0.005-1.176-0.01c-0.397-0.005-0.794-0.01-1.19-0.01
		c-0.378,0-0.755,0.004-1.133,0.009c-0.373,0.004-0.746,0.009-1.118,0.009c0,0,0,0-0.001,0c-0.514,0-0.938-0.009-1.333-0.026
		c-1.889-0.085-2.86-1.161-2.89-3.196C21.106,9.232,22.027,8.049,23.875,7.978z"/>
	<path stroke="#000000" stroke-width="2" stroke-miterlimit="10" d="M38.31,43.499c-1.247,0-2.354,0.433-3.485,1.359
		c-2.206,1.812-4.666,2.77-7.113,2.77c-2.427,0-4.875-0.941-7.08-2.723c-1.17-0.946-2.358-1.405-3.631-1.405
		c-1.111,0-2.188,0.332-3.464,0.832l-0.613,0.24l0.291,0.59c2.365,4.79,3.337,14.789,2.892,20.184L16.053,66h23.325l-0.057-0.657
		c-0.475-5.465,0.458-15.324,2.853-20.197l0.299-0.61l-0.642-0.226C40.525,43.851,39.437,43.499,38.31,43.499z M38.066,64.791
		H17.359c0.321-5.156-0.61-14.938-2.772-19.564c0.885-0.318,1.66-0.519,2.414-0.519c0.999,0,1.911,0.361,2.872,1.137
		c2.422,1.957,5.132,2.991,7.839,2.991c2.731,0,5.456-1.052,7.88-3.043c0.902-0.74,1.766-1.086,2.718-1.086
		c0.765,0,1.564,0.215,2.484,0.522C38.611,49.918,37.716,59.582,38.066,64.791z"/>
	<path stroke="#000000" stroke-width="2" stroke-miterlimit="10" d="M46.422,46.212l-0.477-0.282l-0.322,0.45
		c-2.554,3.559-3.676,10.281-2.61,15.637c0.733,3.685,1.003,3.904,4.805,3.904l0.001-0.604v0.604c3.248,0,4.879,0,5.783-0.979
		c0.92-0.995,0.784-2.736,0.539-5.897C53.693,53.299,51.097,48.981,46.422,46.212z M52.716,64.122
		c-0.546,0.59-2.184,0.59-4.896,0.59h-0.001c-1.519,0-2.436,0-2.796-0.292c-0.356-0.29-0.522-1.125-0.824-2.64
		c-0.962-4.834-0.062-10.813,2.093-14.229c4.011,2.564,6.246,6.46,6.646,11.587C53.16,62.015,53.252,63.542,52.716,64.122z"/>
	<path stroke="#000000" stroke-width="2" stroke-miterlimit="10" d="M22.951,32.078c1.666,0,3.021-1.355,3.021-3.021
		s-1.355-3.021-3.021-3.021s-3.021,1.355-3.021,3.021S21.285,32.078,22.951,32.078z M22.951,27.244c1,0,1.813,0.813,1.813,1.813
		s-0.813,1.813-1.813,1.813s-1.813-0.813-1.813-1.813S21.951,27.244,22.951,27.244z"/>
	<path stroke="#000000" stroke-width="2" stroke-miterlimit="10" d="M33.213,32.078c1.667,0,3.022-1.355,3.022-3.021
		s-1.355-3.021-3.022-3.021c-1.666,0-3.021,1.355-3.021,3.021S31.548,32.078,33.213,32.078z M33.213,27.244
		c1,0,1.813,0.813,1.813,1.813s-0.813,1.813-1.813,1.813c-0.999,0-1.813-0.813-1.813-1.813S32.214,27.244,33.213,27.244z"/>
	<path stroke="#000000" stroke-width="2" stroke-miterlimit="10" d="M22.417,36.119l-0.938,0.763
		c0.112,0.139,2.776,3.368,6.359,3.368c0.02,0,0.039,0,0.059,0c2.112-0.021,4.06-1.157,5.792-3.377l-0.953-0.743
		c-1.493,1.912-3.123,2.892-4.845,2.911C24.875,39.092,22.442,36.148,22.417,36.119z"/>
</g>
</svg>
