<?xml version="1.0" encoding="utf-8"?>
<!-- Generator: Adobe Illustrator 16.0.0, SVG Export Plug-In . SVG Version: 6.00 Build 0)  -->
<!DOCTYPE svg PUBLIC "-//W3C//DTD SVG 1.1//EN" "http://www.w3.org/Graphics/SVG/1.1/DTD/svg11.dtd">
<svg version="1.1" id="Layer_1" xmlns="http://www.w3.org/2000/svg" xmlns:xlink="http://www.w3.org/1999/xlink" x="0px" y="0px"
	 width="87.852px" height="98px" viewBox="262.071 270.5 87.852 98" enable-background="new 262.071 270.5 87.852 98"
	 xml:space="preserve">
<g>
	<g>
		<g>
			<path d="M312.182,325.843c-1.11-0.634-2.22-1.11-3.33-1.585c-0.476-0.159-0.793-0.317-1.269-0.634
				c-0.158,0-0.158-0.159-0.317-0.159c-0.635-0.317-1.268-0.634-1.902-0.793c-0.317-0.159-0.634-0.317-0.952-0.317
				c-0.951-0.476-1.903-0.793-2.696-1.269c-2.379-1.427-3.172-4.123-2.22-6.978c0.793-1.903,2.379-3.171,4.758-3.488
				c0.317,0,0.792,0,1.11,0c0.793,0,1.427,0,2.062,0.158c2.061,0.476,3.646,1.745,4.281,3.647c0.159,0.317,0.159,0.476,0.317,0.793
				c0.158,0.792,0.952,1.269,1.903,1.11c0.792-0.159,1.427-0.952,1.109-1.744c-0.158-0.317-0.158-0.634-0.317-0.952
				c-1.109-3.013-3.806-5.075-7.294-5.551v-3.33c0-0.793-0.635-1.427-1.586-1.427c-0.793,0-1.585,0.634-1.585,1.427v3.33
				c-5.233,0.476-7.136,3.489-7.771,5.392c-1.427,3.964-0.159,8.087,3.33,10.149c1.27,0.634,2.379,1.269,3.964,1.903
				c0.159,0,0.318,0.159,0.477,0.159c0.476,0.158,0.951,0.476,1.269,0.634c0.634,0.317,1.109,0.476,1.744,0.792
				c1.11,0.476,2.062,0.793,2.854,1.427c2.379,1.427,3.33,4.124,2.379,6.819c-0.793,2.062-2.537,3.488-5.233,3.647
				c-0.158,0-0.476,0-0.635,0c-0.475,0-1.268,0-1.902,0c-0.159,0-0.317,0-0.476,0c-2.855-0.317-5.075-2.062-5.709-4.757
				c-0.158-0.792-1.11-1.269-1.903-1.11c-0.792,0.159-1.427,0.952-1.11,1.744c0.952,3.806,4.44,6.502,8.722,6.819v3.33
				c0,0.793,0.634,1.427,1.585,1.427c0.792,0,1.586-0.634,1.586-1.427v-3.33c4.123-0.317,7.136-2.378,8.246-5.708
				C317.256,331.869,315.828,327.904,312.182,325.843z"/>
		</g>
		<g>
			<g>
				<path d="M344.056,296.031l-0.635-0.793c-3.646-4.599-8.086-8.563-13.162-11.417l-0.951-0.476l0.794-0.634
					c1.744-1.585,4.122-2.378,6.502-2.378c5.391,0,9.831,4.44,9.831,9.673c0,1.903-0.634,3.806-1.745,5.392L344.056,296.031z
					 M332.004,283.027c4.44,2.854,8.563,6.343,11.894,10.308c0.634-1.11,0.792-2.378,0.792-3.647c0-4.441-3.646-8.088-8.245-8.088
					C334.858,281.6,333.272,282.076,332.004,283.027z"/>
			</g>
		</g>
		<g>
			<g>
				<path d="M267.463,296.031l-0.634-0.793c-1.11-1.585-1.744-3.489-1.744-5.392c0-5.392,4.281-9.673,9.673-9.673
					c2.378,0,4.757,0.793,6.502,2.379l0.951,0.634l-0.951,0.476c-5.075,3.013-9.515,6.819-13.162,11.417L267.463,296.031z
					 M274.917,281.6c-4.599,0-8.246,3.647-8.246,8.088c0,1.269,0.317,2.537,0.952,3.647c3.33-4.123,7.453-7.612,11.893-10.308
					C278.088,282.076,276.502,281.6,274.917,281.6z"/>
			</g>
		</g>
		<g>
			<g>
				<path d="M337.396,293.652c-7.771-7.771-17.919-12.369-28.861-12.845v-6.184h10.784c1.109,0,2.061-0.952,2.061-2.062
					s-0.951-2.062-2.061-2.062H293.47c-1.11,0-2.062,0.952-2.062,2.062s0.952,2.062,2.062,2.062h10.784v6.025
					c-23.311,1.11-42.023,20.14-42.182,43.45c-0.159,24.262,19.504,44.243,43.767,44.401h0.317c11.576,0,22.518-4.599,30.764-12.844
					c8.246-8.247,12.844-19.188,13.003-30.764C349.923,313.157,345.483,302.057,337.396,293.652z M334.224,352.959
					c-7.611,7.612-17.442,11.735-28.067,11.735h-0.317c-22.042-0.159-39.961-18.395-39.803-40.437
					c0-21.25,17.126-38.693,38.217-39.645c0.634,0,1.11,0,1.744,0h0.317c0.793,0,1.428,0,2.062,0
					c9.991,0.634,19.188,4.599,26.165,11.735c7.453,7.612,11.576,17.761,11.417,28.544
					C345.958,335.517,341.836,345.348,334.224,352.959z"/>
			</g>
		</g>
		<g>
			<circle cx="280.942" cy="344.079" r="2.061"/>
		</g>
		<g>
			<circle cx="276.502" cy="336.468" r="2.062"/>
		</g>
		<g>
			<circle cx="274.44" cy="328.063" r="2.062"/>
		</g>
		<g>
			<circle cx="274.758" cy="319.341" r="2.062"/>
		</g>
		<g>
			<circle cx="277.295" cy="310.937" r="2.062"/>
		</g>
		<g>
			<circle cx="282.211" cy="303.642" r="2.062"/>
		</g>
		<g>
			<circle cx="288.871" cy="297.934" r="2.062"/>
		</g>
		<g>
			<circle cx="296.8" cy="294.286" r="2.061"/>
		</g>
		<g>
			<circle cx="305.363" cy="292.859" r="2.062"/>
		</g>
		<g>
			<g>
				<path d="M313.45,293.176l-0.316,1.586c14.113,3.33,23.786,15.699,23.786,30.129c0,17.126-13.955,30.922-30.922,30.922
					c-3.806,0-7.454-0.634-11.101-2.061l1.11-2.062c0.159-0.476,0.159-0.952,0-1.269c-0.158-0.634-0.634-0.793-1.11-0.793l0,0
					l-6.66,0.317c-0.476,0-0.951,0.318-1.11,0.793c-0.159,0.476-0.159,0.952,0,1.428l3.647,5.55c0.317,0.317,0.634,0.635,1.11,0.635
					c0.476,0,0.951-0.317,1.269-0.793l1.269-2.379c3.806,1.427,7.77,2.22,11.735,2.22c17.919,0,32.508-14.589,32.508-32.508
					C338.506,309.51,328.198,296.506,313.45,293.176z M291.884,356.448l-3.172-5.075l6.026-0.316L291.884,356.448z"/>
			</g>
		</g>
	</g>
</g>
</svg>
