<?xml version="1.0" encoding="utf-8"?>
<!-- Generator: Adobe Illustrator 16.0.0, SVG Export Plug-In . SVG Version: 6.00 Build 0)  -->
<!DOCTYPE svg PUBLIC "-//W3C//DTD SVG 1.1//EN" "http://www.w3.org/Graphics/SVG/1.1/DTD/svg11.dtd">
<svg version="1.1" id="Layer_1" xmlns="http://www.w3.org/2000/svg" xmlns:xlink="http://www.w3.org/1999/xlink" x="0px" y="0px"
	 width="77px" height="77px" viewBox="0 0 77 77" enable-background="new 0 0 77 77" xml:space="preserve">
<g>
	<path fill="#F7ED3D" d="M38.5,0C17.271,0,0,17.271,0,38.5C0,59.729,17.271,77,38.5,77C59.729,77,77,59.729,77,38.5
		C77,17.271,59.729,0,38.5,0L38.5,0z M38.5,72.838c-9.431,0-17.986-3.823-24.199-9.999c-2.48-2.467-4.587-5.31-6.227-8.435
		C5.577,49.646,4.163,44.236,4.163,38.5c0-18.934,15.404-34.337,34.337-34.337c8.98,0,17.166,3.466,23.291,9.131
		c3.177,2.936,5.798,6.463,7.689,10.404c2.151,4.484,3.357,9.505,3.357,14.802C72.838,57.434,57.434,72.838,38.5,72.838L38.5,72.838
		z M38.5,72.838"/>
	<path fill="#F7ED3D" d="M30.088,29.916c0,2.298-1.863,4.161-4.161,4.161c-2.299,0-4.162-1.863-4.162-4.161
		c0-2.299,1.863-4.163,4.162-4.163C28.225,25.753,30.088,27.617,30.088,29.916L30.088,29.916z M30.088,29.916"/>
	<path fill="#F7ED3D" d="M55.844,29.916c0,2.298-1.863,4.161-4.163,4.161c-2.299,0-4.162-1.863-4.162-4.161
		c0-2.299,1.863-4.163,4.162-4.163C53.98,25.753,55.844,27.617,55.844,29.916L55.844,29.916z M55.844,29.916"/>
	<path fill="#F7ED3D" d="M38.426,59.831c8.052,0,15.77-4.118,20.187-10.956l-3.495-2.259c-4.057,6.279-11.479,9.782-18.911,8.925
		c-5.791-0.668-11.146-4.004-14.326-8.925l-3.496,2.259c3.848,5.955,10.331,9.991,17.345,10.801
		C36.631,59.779,37.53,59.831,38.426,59.831L38.426,59.831z M38.426,59.831"/>
</g>
</svg>
