<?xml version="1.0" encoding="utf-8"?>
<!-- Generator: Adobe Illustrator 16.0.0, SVG Export Plug-In . SVG Version: 6.00 Build 0)  -->
<!DOCTYPE svg PUBLIC "-//W3C//DTD SVG 1.1//EN" "http://www.w3.org/Graphics/SVG/1.1/DTD/svg11.dtd">
<svg version="1.1" id="Layer_1" xmlns="http://www.w3.org/2000/svg" xmlns:xlink="http://www.w3.org/1999/xlink" x="0px" y="0px"
	 width="89.181px" height="92px" viewBox="0 0 89.181 92" enable-background="new 0 0 89.181 92" xml:space="preserve">
<g>
	<g>
		<defs>
			<rect id="SVGID_1_" width="89.181" height="92"/>
		</defs>
		<clipPath id="SVGID_2_">
			<use xlink:href="#SVGID_1_"  overflow="visible"/>
		</clipPath>
		<path clip-path="url(#SVGID_2_)" d="M86.476,62.407c1.879-2.398,2.781-4.968,2.666-7.614c-0.115-2.914-1.419-5.197-2.493-6.597
			c1.247-3.107,1.727-7.998-2.436-11.794c-3.05-2.782-8.227-4.028-15.4-3.684c-5.044,0.23-9.264,1.171-9.436,1.209h-0.02
			c-0.959,0.172-1.976,0.383-3.012,0.614c-0.076-1.228,0.135-4.277,2.397-11.144c2.686-8.169,2.532-14.422-0.497-18.603
			c-3.186-4.392-8.268-4.738-9.764-4.738c-1.438,0-2.762,0.595-3.701,1.688c-2.128,2.474-1.879,7.038-1.611,9.148
			c-2.532,6.789-9.627,23.437-15.63,28.058c-0.116,0.077-0.211,0.173-0.306,0.269c-1.766,1.861-2.954,3.875-3.759,5.638
			c-1.132-0.613-2.417-0.958-3.798-0.958H7.979C3.567,43.9,0,47.486,0,51.879v31.165c0,4.41,3.586,7.978,7.979,7.978h11.698
			c1.708,0,3.299-0.536,4.604-1.458l4.506,0.538c0.691,0.096,12.965,1.649,25.565,1.4c2.282,0.172,4.43,0.268,6.425,0.268
			c3.433,0,6.425-0.268,8.918-0.806c5.869-1.246,9.878-3.739,11.91-7.402c1.553-2.8,1.553-5.582,1.305-7.346
			c3.817-3.452,4.486-7.269,4.354-9.954C87.186,64.709,86.841,63.385,86.476,62.407L86.476,62.407z M7.979,85.844
			c-1.554,0-2.8-1.267-2.8-2.8V51.858c0-1.553,1.265-2.8,2.8-2.8h11.698c1.554,0,2.801,1.266,2.801,2.8v31.166
			c0,1.553-1.267,2.8-2.801,2.8H7.979V85.844z M81.566,60.163c-0.805,0.844-0.959,2.13-0.345,3.127c0,0.019,0.786,1.362,0.883,3.202
			c0.134,2.514-1.074,4.737-3.605,6.637c-0.902,0.689-1.266,1.879-0.883,2.953c0,0.019,0.825,2.551-0.518,4.948
			c-1.286,2.301-4.143,3.949-8.478,4.871c-3.47,0.748-8.189,0.882-13.98,0.422h-0.269c-12.332,0.269-24.798-1.344-24.932-1.362
			h-0.02l-1.936-0.229c0.115-0.536,0.172-1.113,0.172-1.688V51.858c0-0.823-0.134-1.63-0.364-2.378
			c0.345-1.284,1.304-4.143,3.566-6.578c8.612-6.828,17.031-29.861,17.396-30.858c0.153-0.403,0.19-0.844,0.114-1.285
			c-0.326-2.148-0.212-4.776,0.249-5.562c1.017,0.019,3.76,0.306,5.408,2.588c1.957,2.705,1.88,7.538-0.23,13.943
			c-3.221,9.763-3.49,14.902-0.939,17.166c1.267,1.131,2.954,1.189,4.182,0.748c1.17-0.269,2.282-0.499,3.337-0.672
			c0.077-0.019,0.172-0.038,0.249-0.058c5.889-1.284,16.438-2.07,20.099,1.267c3.107,2.838,0.902,6.598,0.653,7
			c-0.71,1.073-0.499,2.474,0.46,3.337c0.019,0.019,2.032,1.917,2.129,4.468C84.041,56.691,83.235,58.438,81.566,60.163
			L81.566,60.163z M81.566,60.163"/>
	</g>
</g>
</svg>
