<?xml version="1.0" encoding="utf-8"?>
<!-- Generator: Adobe Illustrator 16.0.0, SVG Export Plug-In . SVG Version: 6.00 Build 0)  -->
<!DOCTYPE svg PUBLIC "-//W3C//DTD SVG 1.1//EN" "http://www.w3.org/Graphics/SVG/1.1/DTD/svg11.dtd">
<svg version="1.1" id="Layer_1" xmlns="http://www.w3.org/2000/svg" xmlns:xlink="http://www.w3.org/1999/xlink" x="0px" y="0px"
	 width="81.99px" height="81.989px" viewBox="0 0 81.99 81.989" enable-background="new 0 0 81.99 81.989" xml:space="preserve">
<path fill-rule="evenodd" clip-rule="evenodd" d="M39.995,0C53.993,0,67.991,0,81.99,0c0,27.329,0,54.66,0,81.989
	c-27.33,0-54.66,0-81.99,0c0-10.998,0-21.997,0-32.995c7.942-5.399,16.351-2.431,24.889-1.771c5.694-2.756,6.269-7.382,4.14-13.318
	c-1.895-5.285-3.12-10.819-4.468-16.286c-1.783-7.229-3.622-6.426,4.978-8.761C34.35,7.552,40.521,7.678,39.995,0z M42.697,3.35
	c0,14.315-0.027,28.124,0.064,41.932c0.006,0.881,0.932,1.754,1.429,2.631c0.551-1.005,1.563-2.003,1.579-3.016
	c0.13-8.493,0.743-17.059-0.15-25.458c-0.615-5.777,6.519-4.93,6.418-9.546c-0.007-0.327,1.082-1.065,1.477-0.955
	c5.771,1.613,13.396-4.49,17.508,4.155c0.238,0.499,1.057,0.735,1.625,1.062c3.845,2.205,4.363,6.281,1.043,9.903
	c-0.381-0.555-0.918-1.014-1.045-1.567c-1.894-8.238-8.27-12.783-16.248-10.264c-2.973,0.938-6.819,4.748-7.093,7.558
	c-0.898,9.209-0.337,18.561-0.337,28.044c2.558,0,4.672,0,6.823,0c-3.594-6.418-3.577-9.978,0.244-12.791
	c3.407-2.507,6.881-2.289,9.979,0.567c3.147,2.902,2.85,7.029-0.48,11.761c2.173,1.157,4.353,2.318,6.611,3.521
	c0.256-4.994,0.507-9.885,0.759-14.776c0.662-0.007,1.324-0.014,1.987-0.021c0.293,1.62,0.793,3.233,0.844,4.861
	c0.182,5.819-0.489,11.764,0.488,17.433c1.048,6.082-4.285,9.39-4.871,14.551c-0.036,0.314-0.923,0.454-1.183,0.833
	c-0.946,1.382-1.793,2.831-3.011,4.793c4.723,0,7.976,0,11.394,0c0-25.209,0-50.084,0-75.21C66.624,3.35,55.042,3.35,42.697,3.35z
	 M48.788,58.263c0.074-0.808,0.148-1.614,0.222-2.421c5.015,0,10.041,0.177,15.039-0.112c1.439-0.083,2.801-1.51,4.199-2.32
	c-1.451-0.755-2.884-2.119-4.356-2.163c-7.811-0.234-15.632-0.227-23.447-0.119c-4.035,0.056-8.161,0.666-8.554-5.266
	c-5.1,3.189-7.72,7.019-7.007,12.93c0.455,3.771,0.069,7.641,0.089,11.467c0.025,4.922,3.201,8.494,8.136,8.582
	c9.145,0.163,18.297,0.137,27.44-0.05c1.318-0.027,2.61-1.383,3.914-2.123c-1.389-0.842-2.688-2.088-4.189-2.423
	c-1.902-0.423-3.972-0.037-5.964-0.126c-1.814-0.082-3.621-0.332-5.431-0.508c-0.048-0.511-0.096-1.023-0.145-1.535
	c1.063-0.346,2.119-0.967,3.188-0.992c4.821-0.111,9.651,0.071,14.465-0.146c1.195-0.054,2.34-1.209,3.508-1.858
	c-1.203-0.767-2.37-2.12-3.615-2.195c-4.475-0.272-8.978-0.024-13.464-0.17c-1.364-0.044-2.709-0.723-4.063-1.11
	c0.032-0.514,0.064-1.028,0.097-1.543c1.33-0.251,2.657-0.698,3.99-0.72c5.321-0.086,10.651,0.105,15.962-0.133
	c1.495-0.067,2.939-1.252,4.407-1.924c-1.542-0.773-3.052-2.125-4.632-2.212c-5.14-0.285-10.307-0.058-15.461-0.14
	C51.67,58.908,50.23,58.496,48.788,58.263z M13.434,69.324c-0.701,0.003-1.4,0.006-2.101,0.009c0-6.522,0-13.045,0-19.384
	c-8.116-0.979-8.228-0.883-8.235,5.955c-0.004,3.164-0.001,6.329-0.001,9.494c0,13.9-0.001,13.809,14.158,13.561
	c3.395-0.06,4.818-1.046,4.7-4.596c-0.204-6.156-0.051-12.325-0.056-18.488c-0.005-6.808-0.765-7.383-8.464-5.473
	C13.434,56.541,13.434,62.933,13.434,69.324z"/>
</svg>
