<?xml version="1.0" encoding="utf-8"?>
<!-- Generator: Adobe Illustrator 16.0.0, SVG Export Plug-In . SVG Version: 6.00 Build 0)  -->
<!DOCTYPE svg PUBLIC "-//W3C//DTD SVG 1.1//EN" "http://www.w3.org/Graphics/SVG/1.1/DTD/svg11.dtd">
<svg version="1.1" id="Layer_1" xmlns="http://www.w3.org/2000/svg" xmlns:xlink="http://www.w3.org/1999/xlink" x="0px" y="0px"
	 width="102.98px" height="103px" viewBox="254.533 267.926 102.98 103" enable-background="new 254.533 267.926 102.98 103"
	 xml:space="preserve">
<g transform="translate(0,-952.36218)">
	<path d="M341.677,1220.317c-0.211,0.047-0.405,0.151-0.562,0.299l-19.157,17.96c-0.246,0.233-0.382,0.559-0.374,0.898v15.116
		l-7.596,8.681c-2.234-1.418-4.95-2.245-7.97-2.245h-31.13c-8.355,0-14.369,6.185-14.369,14.368v8.98
		c-3.479,2.021-5.986,4.761-5.986,7.783v20.355c0,0.661,0.536,1.197,1.197,1.197h3.592v7.184c0,1.306,1.089,2.395,2.395,2.395h9.579
		c1.306,0,2.395-1.089,2.395-2.395v-7.184h33.525v7.184c0,1.306,1.089,2.395,2.396,2.395h9.577c1.307,0,2.396-1.089,2.396-2.395
		v-7.184h3.592c0.661,0.009,1.205-0.52,1.214-1.181c0.01-0.661-0.519-1.205-1.181-1.214c-0.01,0-0.021,0-0.033,0h-22.749v-8.381
		c0-0.661-0.536-1.197-1.198-1.197h-21.552c-0.074-0.007-0.149-0.007-0.224,0c-0.572,0.109-0.983,0.615-0.973,1.197v8.381h-21.552
		v-19.157c0-1.743,1.93-4.337,5.351-6.137c0.389-0.206,0.633-0.607,0.636-1.047v-9.579c0-7.055,4.756-11.973,11.974-11.973h31.13
		c7.217,0,11.974,4.918,11.974,11.973v9.579c0.004,0.439,0.247,0.841,0.636,1.047c3.42,1.8,5.351,4.394,5.351,6.137v13.171
		c-0.01,0.661,0.52,1.205,1.181,1.214c0.661,0.01,1.205-0.519,1.215-1.18c0-0.011,0-0.023,0-0.034v-13.171
		c0-3.022-2.509-5.762-5.987-7.783v-8.98c0-4.322-1.677-8.073-4.49-10.664l7.409-8.494h13.844c0.325-0.002,0.637-0.137,0.86-0.374
		l19.157-19.157c0.462-0.466,0.462-1.217,0-1.684l-14.368-14.368C342.51,1220.354,342.084,1220.226,341.677,1220.317z
		 M341.901,1223.161l12.684,12.721l-17.959,17.96h-12.647v-13.844L341.901,1223.161z M277.283,1269.408
		c-2.603,0-4.661,0.493-6.136,1.534c-1.477,1.042-2.246,2.689-2.246,4.453v7.184c-0.006,0.661,0.525,1.202,1.187,1.208
		c0.118,0.001,0.234-0.016,0.347-0.048c5.903-1.73,11.558-2.358,20.018-2.358c8.459,0,14.115,0.628,20.019,2.358
		c0.634,0.186,1.3-0.178,1.485-0.813c0.032-0.113,0.049-0.229,0.048-0.347v-7.184c0-1.763-0.769-3.411-2.245-4.453
		c-1.476-1.042-3.533-1.534-6.136-1.534H277.283z M277.283,1271.803h26.341c2.294,0,3.859,0.456,4.752,1.085
		c0.892,0.629,1.235,1.374,1.235,2.507v5.725c-5.643-1.486-11.278-2.133-19.158-2.133c-7.88,0-13.516,0.646-19.157,2.133v-5.725
		c0-1.133,0.343-1.877,1.234-2.507C273.422,1272.259,274.988,1271.803,277.283,1271.803z M267.704,1289.763
		c-3.292,0-5.986,2.695-5.986,5.987s2.694,5.986,5.986,5.986c3.292,0,5.987-2.694,5.987-5.986
		C273.69,1292.457,270.996,1289.763,267.704,1289.763z M313.202,1289.763c-3.291,0-5.986,2.695-5.986,5.987
		c0,3.292,2.695,5.986,5.986,5.986c3.293,0,5.986-2.694,5.986-5.986S316.495,1289.763,313.202,1289.763z M267.704,1292.158
		c1.999,0,3.592,1.594,3.592,3.592c0,1.998-1.594,3.592-3.592,3.592c-1.998,0-3.592-1.594-3.592-3.592
		C264.112,1293.752,265.706,1292.158,267.704,1292.158z M313.202,1292.158c1.998,0,3.593,1.594,3.593,3.592
		c0,1.998-1.595,3.592-3.593,3.592s-3.591-1.594-3.591-3.592C309.611,1293.752,311.204,1292.158,313.202,1292.158z
		 M280.875,1304.131h19.158v7.184h-19.158V1304.131z M261.717,1313.71h9.579v7.184h-9.579V1313.71z M309.611,1313.71h9.577v7.184
		h-9.577V1313.71z"/>
</g>
</svg>
