<?xml version="1.0" encoding="utf-8"?>
<!-- Generator: Adobe Illustrator 16.0.0, SVG Export Plug-In . SVG Version: 6.00 Build 0)  -->
<!DOCTYPE svg PUBLIC "-//W3C//DTD SVG 1.1//EN" "http://www.w3.org/Graphics/SVG/1.1/DTD/svg11.dtd">
<svg version="1.1" id="Layer_1" xmlns="http://www.w3.org/2000/svg" xmlns:xlink="http://www.w3.org/1999/xlink" x="0px" y="0px"
	 width="40px" height="68.857px" viewBox="0 0 40 68.857" enable-background="new 0 0 40 68.857" xml:space="preserve">
<g>
	<path fill="#F7ED3D" d="M35.351,0H4.65C2.095,0,0,2.095,0,4.65v59.557c0,2.555,2.095,4.649,4.65,4.649h30.7
		c2.556,0,4.649-2.095,4.649-4.649V4.65C40,2.095,37.906,0,35.351,0L35.351,0z M15.092,3.351h9.817c0.316,0,0.566,0.251,0.566,0.568
		c0,0.308-0.25,0.556-0.566,0.556h-9.817c-0.318,0-0.569-0.249-0.569-0.556C14.523,3.602,14.774,3.351,15.092,3.351L15.092,3.351z
		 M20,66.532c-1.289,0-2.323-1.037-2.323-2.324s1.035-2.325,2.323-2.325c1.287,0,2.324,1.038,2.324,2.325S21.287,66.532,20,66.532
		L20,66.532z M36.763,60.25H3.236V7.377h33.527V60.25z M36.763,60.25"/>
</g>
</svg>
